#!OML:ASF I:\Actors\actors\Patient Classification 1\Patient 1\Session 1\Subject1.ASF
:FULLY-SPECIFIED
:DEGREES
1226
root -0.334545 17.6908 7.3227 11.2379 7.76407 -12.6128
lowerback 10.1236 3.7645 6.27192
upperback 6.47727 5.47897 -0.460153
thorax 1.76456 2.95587 -4.41277
lowerneck -11.3092 -0.257025 4.53524
upperneck 17.6003 -0.624072 -2.94012
head 7.23155 -0.252028 -1.76707
rclavicle -6.75868e-014 7.95139e-016
rhumerus 41.6311 48.5442 -37.5964
rradius 94.8983
rwrist -47.2444
rhand 30.3523 -28.08
rfingers 7.12502
rthumb 54.0234 -46.9022
lclavicle -6.75868e-014 7.95139e-016
lhumerus 70.178 -74.0759 -2.49191
lradius 64.5346
lwrist 76.6661
lhand -12.6458 -5.01498
lfingers 7.12502
lthumb 13.4346 24.5318
rfemur -18.2119 10.2624 28.8451
rtibia 16.3847
rfoot -14.2138 -19.0426
rtoes 0.270652
lfemur -16.0253 -27.4438 5.42999
ltibia 3.8885
lfoot -3.6912 32.7862
ltoes -13.6739
1227
root -0.317817 17.6842 7.29928 11.4161 7.46918 -12.5932
lowerback 10.1297 3.67991 6.54493
upperback 6.32455 5.39307 -0.398083
thorax 1.61176 2.91062 -4.50235
lowerneck -11.4299 -0.259717 4.57658
upperneck 17.4829 -0.687908 -2.7109
head 7.21398 -0.26167 -1.70464
rclavicle 4.37326e-015 2.46493e-014
rhumerus 41.9163 49.7748 -36.0316
rradius 94.5473
rwrist -47.1179
rhand 30.6583 -28.2771
rfingers 7.12502
rthumb 54.2978 -46.9117
lclavicle 4.37326e-015 2.46493e-014
lhumerus 71.1839 -74.2043 -3.33703
lradius 64.2505
lwrist 76.2947
lhand -12.308 -4.86861
lfingers 7.12502
lthumb 13.7602 24.6564
rfemur -18.5383 10.3001 28.6952
rtibia 16.4461
rfoot -14.052 -18.8662
rtoes -0.11558
lfemur -16.3407 -27.2702 5.4482
ltibia 4.13213
lfoot -3.83314 32.886
ltoes -13.4465
1228
root -0.30816 17.6823 7.28698 11.411 7.16475 -12.5382
lowerback 10.0517 3.56737 6.57824
upperback 6.31448 5.24176 -0.275976
thorax 1.61514 2.83282 -4.37895
lowerneck -11.4169 -0.23433 4.68116
upperneck 17.2091 -0.702952 -2.57347
head 7.12314 -0.253467 -1.67564
rclavicle 1.03368e-014 -1.27222e-014
rhumerus 42.6885 51.0951 -34.3054
rradius 94.3708
rwrist -46.6231
rhand 30.3533 -28.2688
rfingers 7.12502
rthumb 54.0243 -47.0903
lclavicle 1.03368e-014 -1.27222e-014
lhumerus 71.3903 -74.318 -3.40482
lradius 63.9857
lwrist 75.9171
lhand -12.1046 -4.79183
lfingers 7.12502
lthumb 13.9562 24.7198
rfemur -18.4885 10.483 28.5771
rtibia 16.3134
rfoot -13.9199 -18.806
rtoes -0.231924
lfemur -16.2546 -27.1256 5.28588
ltibia 4.20085
lfoot -3.91445 32.9492
ltoes -13.3764
1229
root -0.305889 17.6867 7.28448 11.2254 6.87031 -12.3734
lowerback 10.0768 3.44877 6.40632
upperback 6.39608 5.07031 -0.181141
thorax 1.63909 2.74244 -4.17288
lowerneck -11.4175 -0.201564 4.85945
upperneck 16.8929 -0.731599 -2.38365
head 7.02105 -0.243526 -1.64288
rclavicle -2.46493e-014 -7.95139e-016
rhumerus 43.5823 52.345 -32.795
rradius 94.3779
rwrist -45.6904
rhand 29.3897 -28.1188
rfingers 7.12502
rthumb 53.1575 -47.5109
lclavicle -2.46493e-014 -7.95139e-016
lhumerus 71.4525 -74.4561 -3.3831
lradius 63.7764
lwrist 75.5468
lhand -12.4081 -5.07
lfingers 7.12502
lthumb 13.6638 24.4615
rfemur -18.0662 10.8615 28.3965
rtibia 15.986
rfoot -13.7964 -18.9727
rtoes -0.363516
lfemur -15.7881 -27.0669 4.86966
ltibia 4.10141
lfoot -3.82333 32.9658
ltoes -13.6935
1230
root -0.300814 17.6879 7.27868 11.1504 6.44247 -12.2354
lowerback 10.0371 3.3606 6.26868
upperback 6.45888 4.93758 -0.0899302
thorax 1.68849 2.67251 -3.98782
lowerneck -11.4792 -0.149006 4.81742
upperneck 16.5635 -0.734998 -1.96523
head 6.92894 -0.216448 -1.49783
rclavicle 2.26615e-014 -6.36111e-015
rhumerus 44.553 53.4805 -31.4833
rradius 94.5977
rwrist -44.4775
rhand 28.959 -28.7057
rfingers 7.12502
rthumb 52.7686 -48.3434
lclavicle 2.26615e-014 -6.36111e-015
lhumerus 70.6561 -74.6599 -2.43767
lradius 63.5475
lwrist 75.2693
lhand -12.7675 -5.56498
lfingers 7.12502
lthumb 13.3173 23.9895
rfemur -17.876 11.2004 28.2189
rtibia 15.8174
rfoot -13.6236 -18.9965
rtoes -0.746573
lfemur -15.3979 -27.0339 4.53886
ltibia 3.96927
lfoot -3.85629 33.1923
ltoes -13.4613
1231
root -0.292824 17.6855 7.26822 11.2253 5.87557 -12.1941
lowerback 9.84783 3.34263 6.25234
upperback 6.49941 4.89735 0.0150002
thorax 1.81822 2.65389 -3.85146
lowerneck -11.4473 -0.131626 4.67654
upperneck 16.0788 -0.772946 -1.47407
head 6.77017 -0.208217 -1.31515
rclavicle -3.29983e-014 2.62396e-014
rhumerus 45.4254 54.4129 -30.4438
rradius 95.0435
rwrist -43.5463
rhand 28.2875 -28.2091
rfingers 7.12502
rthumb 52.161 -48.2187
lclavicle -3.29983e-014 2.62396e-014
lhumerus 69.5527 -74.8339 -1.0421
lradius 63.2633
lwrist 75.054
lhand -12.8011 -5.74699
lfingers 7.12502
lthumb 13.2849 23.8096
rfemur -17.9728 11.4701 28.1102
rtibia 15.8045
rfoot -13.4117 -18.8068
rtoes -1.32445
lfemur -15.1553 -26.8904 4.38234
ltibia 3.85739
lfoot -4.13009 33.5631
ltoes -12.5165
1232
root -0.283608 17.684 7.25718 11.3388 5.34237 -12.1075
lowerback 9.701 3.39629 6.33928
upperback 6.49996 4.96352 0.0442927
thorax 1.91247 2.69146 -3.86198
lowerneck -11.3947 -0.230237 4.74147
upperneck 15.5469 -0.982177 -1.08978
head 6.58697 -0.280754 -1.21655
rclavicle -6.36111e-015 7.95139e-015
rhumerus 45.7764 55.0371 -30.0446
rradius 95.6484
rwrist -43.0206
rhand 27.2724 -28.3621
rfingers 7.12502
rthumb 51.2388 -48.9092
lclavicle -6.36111e-015 7.95139e-015
lhumerus 69.7472 -74.9785 -0.84469
lradius 63.0088
lwrist 74.7825
lhand -12.7172 -5.73826
lfingers 7.12502
lthumb 13.3658 23.813
rfemur -18.0982 11.6944 27.9299
rtibia 15.7622
rfoot -13.2347 -18.5954
rtoes -1.75363
lfemur -15.0166 -26.6965 4.18198
ltibia 3.83298
lfoot -4.29816 33.8451
ltoes -12.016
1233
root -0.272284 17.6843 7.24716 11.3929 4.86698 -11.9173
lowerback 9.70246 3.46299 6.42569
upperback 6.47619 5.05779 0.0043757
thorax 1.91028 2.74123 -3.95766
lowerneck -11.4661 -0.373338 4.95673
upperneck 15.0995 -1.27566 -0.744998
head 6.45027 -0.388878 -1.16406
rclavicle -1.19271e-015 -7.95139e-016
rhumerus 45.8446 55.4091 -30.19
rradius 96.288
rwrist -42.5714
rhand 26.4016 -28.5092
rfingers 7.12502
rthumb 50.4448 -49.4952
lclavicle -1.19271e-015 -7.95139e-016
lhumerus 70.7186 -75.1851 -1.40841
lradius 62.8135
lwrist 74.4737
lhand -12.7768 -5.87314
lfingers 7.12502
lthumb 13.3083 23.6819
rfemur -18.1468 11.8522 27.631
rtibia 15.7089
rfoot -13.117 -18.3686
rtoes -1.93045
lfemur -14.8537 -26.6272 3.82386
ltibia 3.84856
lfoot -4.37569 34.1182
ltoes -11.7721
1234
root -0.261843 17.6837 7.23703 11.4345 4.39084 -11.776
lowerback 9.72569 3.45377 6.45203
upperback 6.41716 5.04997 0.0243332
thorax 1.83504 2.73335 -3.95573
lowerneck -11.44 -0.450677 5.05545
upperneck 14.5912 -1.46255 -0.315447
head 6.28293 -0.448468 -1.05526
rclavicle 2.50469e-014 -2.8625e-014
rhumerus 46.3275 55.7641 -30.2842
rradius 96.9615
rwrist -42.0685
rhand 25.9677 -28.6369
rfingers 7.12502
rthumb 50.0481 -49.8343
lclavicle 2.50469e-014 -2.8625e-014
lhumerus 70.6718 -75.5182 -0.981839
lradius 62.5981
lwrist 74.2357
lhand -12.9117 -6.03864
lfingers 7.12502
lthumb 13.1783 23.5249
rfemur -18.2374 12.0716 27.3881
rtibia 15.7575
rfoot -13.0627 -18.1352
rtoes -1.99566
lfemur -14.6965 -26.5185 3.53047
ltibia 3.87824
lfoot -4.58099 34.399
ltoes -11.3566
1235
root -0.253008 17.6819 7.22762 11.517 3.88038 -11.7351
lowerback 9.69828 3.38129 6.42731
upperback 6.31303 4.9528 0.141568
thorax 1.7148 2.67434 -3.81794
lowerneck -11.2229 -0.414055 5.07076
upperneck 13.955 -1.46142 0.113219
head 6.04876 -0.427061 -0.915951
rclavicle -3.57812e-015 -3.57812e-014
rhumerus 47.3112 56.1805 -30.09
rradius 97.7604
rwrist -41.5743
rhand 25.5246 -28.8764
rfingers 7.12502
rthumb 49.6423 -50.285
lclavicle -3.57812e-015 -3.57812e-014
lhumerus 69.3559 -75.9697 0.722205
lradius 62.3156
lwrist 74.0954
lhand -12.8392 -6.05571
lfingers 7.12502
lthumb 13.2482 23.5033
rfemur -18.414 12.3969 27.2504
rtibia 15.8873
rfoot -13.0694 -17.9107
rtoes -1.87371
lfemur -14.5764 -26.2969 3.38386
ltibia 3.89832
lfoot -4.80688 34.6517
ltoes -10.944
1236
root -0.242693 17.6804 7.21914 11.5424 3.30193 -11.7384
lowerback 9.71497 3.31834 6.38802
upperback 6.26277 4.8682 0.312457
thorax 1.62294 2.62228 -3.61783
lowerneck -11.57 -0.321211 4.81717
upperneck 13.9721 -1.43338 0.875845
head 6.12444 -0.365236 -0.632008
rclavicle -6.63941e-014 2.22639e-014
rhumerus 48.4688 56.4406 -29.8007
rradius 98.6584
rwrist -41.2352
rhand 25.1937 -29.1474
rfingers 7.12502
rthumb 49.3389 -50.7105
lclavicle -6.63941e-014 2.22639e-014
lhumerus 67.6884 -76.3884 2.8387
lradius 62.02
lwrist 73.9942
lhand -12.6795 -5.84116
lfingers 7.12502
lthumb 13.4021 23.7077
rfemur -18.55 12.7881 27.1613
rtibia 16.0415
rfoot -13.0258 -17.6872
rtoes -2.00908
lfemur -14.3077 -26.2077 3.24839
ltibia 3.81557
lfoot -4.9467 35.0592
ltoes -10.4192
1237
root -0.22929 17.6769 7.21211 11.6256 2.66895 -11.6458
lowerback 9.59558 3.26988 6.24433
upperback 6.25967 4.78376 0.479341
thorax 1.64634 2.57202 -3.35227
lowerneck -11.8445 -0.223177 4.85335
upperneck 13.6882 -1.38663 1.31167
head 6.08732 -0.31181 -0.495391
rclavicle 3.53837e-014 3.97569e-015
rhumerus 49.7676 56.5032 -29.4396
rradius 99.6476
rwrist -41.1376
rhand 24.7302 -29.3587
rfingers 7.12502
rthumb 48.9133 -51.1338
lclavicle 3.53837e-014 3.97569e-015
lhumerus 65.9124 -76.7225 5.15881
lradius 61.6911
lwrist 73.8466
lhand -12.5525 -5.51747
lfingers 7.12502
lthumb 13.5246 24.0233
rfemur -18.7821 13.1801 26.9163
rtibia 16.2332
rfoot -12.9475 -17.3944
rtoes -2.22344
lfemur -14.0465 -26.2475 3.00422
ltibia 3.68513
lfoot -5.06574 35.6516
ltoes -9.88447
